<?xml version="1.0" encoding="UTF-8"?>
<svg id="face" xmlns="http://www.w3.org/2000/svg" viewBox="0 0 133.55 183.65">
  <defs>
    <style>
      .cls-1 {
        fill: #f5fafc;
      }

      .cls-2 {
        fill: #80d0dd;
      }

      .cls-3 {
        fill: #66d8f7;
      }

      .cls-4 {
        fill: #9edae8;
      }

      .cls-5 {
        fill: #2fa7d1;
      }

      .cls-6 {
        fill: #440914;
      }

      .cls-7 {
        fill: #1b8aa8;
      }

      .cls-8 {
        fill: #5dbece;
      }

      .cls-9 {
        fill: #4befef;
      }
    </style>
  </defs>
  <path class="cls-7" d="m93.25,183.65c-1.28,0-2.59-.23-3.9-.69-12.31-4.31-9.21-17.39-6.21-30.04,3.38-14.25-.45-24.03-7.41-41.78l-.55-1.41c-2.39-6.11-3.89-12.25-4.47-18.33-.72-.02-1.43-.09-2.13-.19-1,11.28-4.33,21.01-7.57,30.47-1.69,4.92-3.28,9.58-4.5,14.31-2.83,11.02-.68,16.87,1.81,23.65,1.24,3.37,2.52,6.85,3.27,11.07.54,3.01-.28,5.99-2.31,8.41-2.33,2.79-6.04,4.45-9.9,4.45-6.09,0-11.49-3.97-14.44-10.62-5.84-13.13-5.56-30.32.7-50.2-6.17,8.83-10.01,17.36-9.81,22.12.46,10.96.27,20.4-6.8,24.92-1.84,1.18-3.96,1.8-6.12,1.8-3.03,0-5.92-1.24-8.12-3.5C1.45,164.67-.16,159.3.01,152.13c.36-15.09,5.36-25.87,21.41-46.15,4.86-6.15,7.43-12.7,8.75-18.38-1.55.25-3.07.39-4.52.39-6.33,0-10.85-2.47-12.39-6.77-1.81-5.05,1.28-10.75,7.69-14.98-2.74-4.79-4.12-10.51-4.12-17.08C16.84,22.05,40.02,0,68.51,0s51.67,22.05,51.67,49.16c0,5.21-.87,9.9-2.6,14.01,6.81,4.27,10.15,10.16,8.29,15.37-1.54,4.3-6.06,6.77-12.39,6.77-1.61,0-3.29-.16-5.01-.47,1.49,5.94,4.49,12.79,9.23,21.12,10.28,18.07,15.27,29.19,15.82,43.45.19,5.03-.01,17.41-6.08,23.72-2.15,2.23-4.8,3.41-7.67,3.41h0c-1.32,0-2.67-.26-4.01-.76-6.7-2.53-8.41-6.85-8.49-11.88-1.99,17.7-10.26,19.78-14,19.78m12.09-53.19c2.11,9.08,2.54,17.37,2.33,26.89,0,.28-.01.56-.02.83.08-.62.16-1.25.24-1.89.21-1.6.45-3.42.64-5.38.63-6.31-.16-12.25-3.19-20.45"/>
  <path class="cls-2" d="m49.51,70.25s5.78,16.64-4.83,42.33c-9.5,23-11.83,43.33-5.17,58.33,5.55,12.48,18.38,7.46,17.17.67-2.17-12.17-9.67-18.67-5-36.83,4.67-18.17,14.67-35.17,11.67-59.17s-13.83-5.33-13.83-5.33"/>
  <path class="cls-4" d="m35.84,67.5s4.67,22.42-10.5,41.58c-15.17,19.17-20,29.17-20.33,43.17-.33,14,7.17,16,11.33,13.33,4.17-2.67,5-8.67,4.5-20.5-.31-7.33,5.83-19.17,14-29.67s14.83-29,12.83-45.5-11.83-2.42-11.83-2.42"/>
  <path class="cls-8" d="m76.68,75.08s-4.33,13.67,3.17,32.83c7.5,19.17,12,30,8.17,46.17-3.83,16.17-3.67,21.83,3,24.17,6.67,2.33,11.33-5.5,11.67-21,.33-15.5-.83-27.83-10.33-48.17s-3.5-39.33-3.5-39.33l-12.17,5.33Z"/>
  <path class="cls-4" d="m94.18,70.75s-4.5,16,6.5,37.5,14,31.5,12.83,43.17c-1.17,11.67-3.5,16.83,4,19.67,7.5,2.83,11.5-8.5,11-21.5s-4.83-23-15.17-41.17c-10.33-18.17-12.5-29.33-10.17-39.67,2.33-10.33-9,2-9,2"/>
  <path class="cls-9" d="m110.77,65.27c2.82-4.14,4.4-9.42,4.4-16.11,0-24.39-20.89-44.16-46.67-44.16S21.84,24.77,21.84,49.16c0,8.24,2.39,14.33,6.54,18.79-7.1,2.97-11.7,7.99-10.41,11.58,1.37,3.82,8.86,4.59,16.74,1.72,2.34-.85,4.44-1.94,6.22-3.13.07,2.02.71,3.81,1.98,5.15,3.71,3.94,11.45,2.67,17.79-2.72,2.1,3.5,6.04,5.87,10.57,5.87,5.15,0,9.54-3.06,11.32-7.37,6.5,6.09,14.91,7.62,18.89,3.39,1.09-1.15,1.72-2.62,1.96-4.27.33.13.65.27.99.39,7.87,2.87,15.37,2.1,16.74-1.72,1.29-3.59-3.29-8.6-10.38-11.57"/>
  <path class="cls-5" d="m110.77,65.27c2.82-4.14,4.4-9.42,4.4-16.11,0-1.26-.07-2.51-.18-3.75-.33,1.77-.73,3.52-1.18,5.24-1.26,4.81-2.72,10.05-6.82,13.23-3.49,2.71-8.25,2.95-12.57,2.9,1.26,1.26,1.6,3.05.13,4.67-2.13,2.35-5.38,2.54-8.23,1.37-1.86-.76-3.48-1.86-5.19-2.89-.28-.17-2.93-1.83-3.14-1.42-.44.85-.82,1.72-1.19,2.6-.93,2.21-2.12,5.23-4.88,5.57-3.67.46-6.15-1.97-8.46-4.46-.65-.7-1.29-1.43-2.04-2.03.02.02-1.12,1.34-1.21,1.44-1.15,1.27-2.35,2.48-3.68,3.56-1.6,1.3-4.25,3.05-6.45,2.22-2.46-.93-3.33-3.54-3.83-5.94-5.91,2.78-12.48,4.42-19,3.03-1.79-.38-3.87-1.35-3.91-3.52,0-.11.02-.2.02-.3-4.07,2.8-6.31,6.21-5.37,8.86,1.37,3.82,8.86,4.59,16.74,1.72,2.34-.85,4.44-1.94,6.22-3.13.07,2.02.71,3.81,1.98,5.15,3.71,3.94,11.45,2.67,17.79-2.72,2.1,3.5,6.04,5.87,10.57,5.87,5.15,0,9.54-3.06,11.32-7.37,6.5,6.09,14.91,7.62,18.89,3.39,1.09-1.15,1.72-2.62,1.96-4.27.33.13.65.27.99.39,7.87,2.87,15.37,2.1,16.74-1.72,1.29-3.59-3.29-8.6-10.38-11.57Z"/>
  <path class="cls-6" d="m56.01,41.75c0-2.25,1.16-4.08,2.58-4.08s2.58,1.83,2.58,4.08-1.16,4.08-2.58,4.08-2.58-1.83-2.58-4.08"/>
  <path class="cls-6" d="m77.26,41.75c0-2.25,1.16-4.08,2.58-4.08s2.58,1.83,2.58,4.08-1.16,4.08-2.58,4.08-2.58-1.83-2.58-4.08"/>
  <path class="cls-3" d="m74.76,21.17c0-3.36,3.72-6.08,7.08-6.08s8.33,3.47,8.33,6.83-3.97,5.42-7.33,5.42-8.08-2.81-8.08-6.17"/>
  <path class="cls-5" d="m38.85,49.84c1.22,1.23.98,3.44-.12,4.54-1.11,1.1-4.01,1.46-5.23.24-1.22-1.23-.66-3.28.45-4.38,1.11-1.1,3.68-1.62,4.91-.4"/>
  <path class="cls-5" d="m100.04,45.01c.96.01,1.74,1.06,1.72,2.01-.01.94-1.02,2.33-1.99,2.31-.96-.01-1.54-1.13-1.53-2.07.01-.94.83-2.26,1.8-2.25"/>
  <path class="cls-1" d="m30.9,38.02c-.24,0-.48-.04-.71-.13-1.03-.39-1.55-1.55-1.16-2.58.83-2.18,1.83-4.3,2.97-6.31.55-.96,1.77-1.29,2.73-.75.96.55,1.29,1.77.75,2.73-1.04,1.83-1.95,3.76-2.71,5.75-.3.8-1.06,1.29-1.87,1.29"/>
  <path class="cls-1" d="m37.41,26.58c-.44,0-.88-.14-1.25-.44-.86-.69-1-1.95-.31-2.81,2.7-3.38,5.27-5.54,6.55-6.52.88-.67,2.13-.5,2.8.37.67.88.5,2.13-.37,2.8-1.14.87-3.42,2.79-5.85,5.84-.4.49-.98.75-1.56.75"/>
  <path class="cls-6" d="m78.59,54.25c.19.01.11,1.66-1.46,3.62-.79.96-1.98,1.92-3.5,2.58-1.51.66-3.31,1.03-5.16,1.04-1.85.02-3.64-.2-5.2-.74-1.56-.54-2.83-1.42-3.66-2.36-.84-.94-1.25-1.89-1.42-2.56-.17-.67-.12-1.07-.02-1.08.21-.06.56,1.41,2.19,2.88.81.72,1.94,1.38,3.34,1.79,1.39.41,3.02.58,4.73.55,1.71,0,3.31-.31,4.67-.82,1.36-.51,2.45-1.25,3.24-2.01,1.59-1.55,2.04-2.97,2.25-2.9"/>
</svg>